<svg width="290" height="40" viewBox="0 0 290 40" fill="none" xmlns="http://www.w3.org/2000/svg">
<rect width="290" height="40" fill="#1E1E1E"/>
<g clip-path="url(#clip0_0_1)">
<rect width="1440" height="984" transform="translate(-971 -381)" fill="white"/>
<path d="M-33 -291.5C-36.0376 -291.5 -38.5 -289.038 -38.5 -286V71C-38.5 74.0376 -36.0376 76.5 -33 76.5H324C327.038 76.5 329.5 74.0376 329.5 71V-286C329.5 -289.038 327.038 -291.5 324 -291.5H-33Z" fill="#FF8585" fill-opacity="0.22" stroke="black"/>
<rect width="290" height="40" rx="5" fill="#FF5C00" fill-opacity="0.6"/>
<path d="M57.4382 26V12.9091H62.1044C63.1229 12.9091 63.9666 13.0945 64.6357 13.4652C65.3047 13.8359 65.8054 14.343 66.1378 14.9865C66.4702 15.6257 66.6364 16.3459 66.6364 17.147C66.6364 17.9524 66.468 18.6768 66.1314 19.3203C65.799 19.9595 65.2962 20.4666 64.6229 20.8416C63.9538 21.2124 63.1122 21.3977 62.098 21.3977H58.8892V19.723H61.919C62.5625 19.723 63.0845 19.6122 63.4851 19.3906C63.8857 19.1648 64.1797 18.858 64.3672 18.4702C64.5547 18.0824 64.6484 17.6413 64.6484 17.147C64.6484 16.6527 64.5547 16.2138 64.3672 15.8303C64.1797 15.4467 63.8835 15.1463 63.4787 14.929C63.0781 14.7116 62.5497 14.603 61.8935 14.603H59.4134V26H57.4382ZM68.7985 26V16.1818H70.6458V17.7415H70.748C70.927 17.2131 71.2424 16.7976 71.6941 16.495C72.15 16.1882 72.6657 16.0348 73.2409 16.0348C73.3603 16.0348 73.5009 16.0391 73.6628 16.0476C73.829 16.0561 73.959 16.0668 74.0527 16.0795V17.9077C73.976 17.8864 73.8397 17.8629 73.6436 17.8374C73.4476 17.8075 73.2516 17.7926 73.0556 17.7926C72.6039 17.7926 72.2012 17.8885 71.8475 18.0803C71.498 18.2678 71.2211 18.5298 71.0165 18.8665C70.812 19.1989 70.7097 19.5781 70.7097 20.0043V26H68.7985ZM79.4908 26.1982C78.5703 26.1982 77.767 25.9872 77.081 25.5653C76.3949 25.1435 75.8622 24.5533 75.483 23.7947C75.1037 23.0362 74.9141 22.1499 74.9141 21.1357C74.9141 20.1172 75.1037 19.2266 75.483 18.4638C75.8622 17.701 76.3949 17.1087 77.081 16.6868C77.767 16.2649 78.5703 16.054 79.4908 16.054C80.4112 16.054 81.2145 16.2649 81.9006 16.6868C82.5866 17.1087 83.1193 17.701 83.4986 18.4638C83.8778 19.2266 84.0675 20.1172 84.0675 21.1357C84.0675 22.1499 83.8778 23.0362 83.4986 23.7947C83.1193 24.5533 82.5866 25.1435 81.9006 25.5653C81.2145 25.9872 80.4112 26.1982 79.4908 26.1982ZM79.4972 24.5938C80.0938 24.5938 80.5881 24.4361 80.9801 24.1207C81.3722 23.8054 81.6619 23.3857 81.8494 22.8615C82.0412 22.3374 82.1371 21.7599 82.1371 21.1293C82.1371 20.5028 82.0412 19.9276 81.8494 19.4034C81.6619 18.875 81.3722 18.451 80.9801 18.1314C80.5881 17.8118 80.0938 17.652 79.4972 17.652C78.8963 17.652 78.3977 17.8118 78.0014 18.1314C77.6094 18.451 77.3175 18.875 77.1257 19.4034C76.9382 19.9276 76.8445 20.5028 76.8445 21.1293C76.8445 21.7599 76.9382 22.3374 77.1257 22.8615C77.3175 23.3857 77.6094 23.8054 78.0014 24.1207C78.3977 24.4361 78.8963 24.5938 79.4972 24.5938ZM90.3365 26.1982C89.3862 26.1982 88.568 25.983 87.8819 25.5526C87.2001 25.1179 86.676 24.5192 86.3095 23.7564C85.943 22.9936 85.7598 22.12 85.7598 21.1357C85.7598 20.1385 85.9473 19.2585 86.3223 18.4957C86.6973 17.7287 87.2257 17.13 87.9075 16.6996C88.5893 16.2692 89.3926 16.054 90.3173 16.054C91.063 16.054 91.7278 16.1925 92.3116 16.4695C92.8954 16.7422 93.3663 17.1257 93.7243 17.62C94.0865 18.1143 94.3017 18.6918 94.3699 19.3523H92.5098C92.4075 18.892 92.1731 18.4957 91.8066 18.1634C91.4444 17.831 90.9586 17.6648 90.3493 17.6648C89.8166 17.6648 89.35 17.8054 88.9494 18.0866C88.5531 18.3636 88.2441 18.7599 88.0225 19.2756C87.801 19.7869 87.6902 20.392 87.6902 21.0909C87.6902 21.8068 87.7988 22.4247 88.0162 22.9446C88.2335 23.4645 88.5403 23.8672 88.9366 24.1527C89.3372 24.4382 89.8081 24.581 90.3493 24.581C90.7115 24.581 91.0396 24.5149 91.3336 24.3828C91.6319 24.2464 91.8812 24.0526 92.0815 23.8011C92.286 23.5497 92.4288 23.2472 92.5098 22.8935H94.3699C94.3017 23.5284 94.095 24.0952 93.7498 24.5938C93.4047 25.0923 92.9423 25.4844 92.3627 25.7699C91.7875 26.0554 91.112 26.1982 90.3365 26.1982ZM100.645 26.1982C99.6779 26.1982 98.8448 25.9915 98.146 25.5781C97.4513 25.1605 96.9144 24.5746 96.5352 23.8203C96.1602 23.0618 95.9727 22.1733 95.9727 21.1548C95.9727 20.1491 96.1602 19.2628 96.5352 18.4957C96.9144 17.7287 97.4428 17.13 98.1204 16.6996C98.8022 16.2692 99.5991 16.054 100.511 16.054C101.065 16.054 101.602 16.1456 102.122 16.3288C102.642 16.5121 103.108 16.7997 103.522 17.1918C103.935 17.5838 104.261 18.093 104.5 18.7195C104.738 19.3416 104.858 20.098 104.858 20.9886V21.6662H97.0529V20.2344H102.985C102.985 19.7315 102.882 19.2862 102.678 18.8984C102.473 18.5064 102.186 18.1974 101.815 17.9716C101.449 17.7457 101.018 17.6328 100.524 17.6328C99.9869 17.6328 99.5181 17.7649 99.1175 18.0291C98.7212 18.2891 98.4144 18.63 98.1971 19.0518C97.984 19.4695 97.8775 19.9233 97.8775 20.4134V21.532C97.8775 22.1882 97.9925 22.7464 98.2227 23.2067C98.457 23.6669 98.783 24.0185 99.2006 24.2614C99.6183 24.5 100.106 24.6193 100.664 24.6193C101.027 24.6193 101.357 24.5682 101.655 24.4659C101.953 24.3594 102.211 24.2017 102.429 23.9929C102.646 23.7841 102.812 23.5263 102.927 23.2195L104.736 23.5455C104.591 24.0781 104.331 24.5447 103.956 24.9453C103.586 25.3416 103.119 25.6506 102.556 25.8722C101.998 26.0895 101.361 26.1982 100.645 26.1982ZM111.21 26.1982C110.242 26.1982 109.409 25.9915 108.71 25.5781C108.016 25.1605 107.479 24.5746 107.1 23.8203C106.725 23.0618 106.537 22.1733 106.537 21.1548C106.537 20.1491 106.725 19.2628 107.1 18.4957C107.479 17.7287 108.007 17.13 108.685 16.6996C109.367 16.2692 110.164 16.054 111.075 16.054C111.629 16.054 112.166 16.1456 112.686 16.3288C113.206 16.5121 113.673 16.7997 114.086 17.1918C114.499 17.5838 114.825 18.093 115.064 18.7195C115.303 19.3416 115.422 20.098 115.422 20.9886V21.6662H107.617V20.2344H113.549C113.549 19.7315 113.447 19.2862 113.242 18.8984C113.038 18.5064 112.75 18.1974 112.379 17.9716C112.013 17.7457 111.583 17.6328 111.088 17.6328C110.551 17.6328 110.083 17.7649 109.682 18.0291C109.286 18.2891 108.979 18.63 108.762 19.0518C108.548 19.4695 108.442 19.9233 108.442 20.4134V21.532C108.442 22.1882 108.557 22.7464 108.787 23.2067C109.021 23.6669 109.347 24.0185 109.765 24.2614C110.183 24.5 110.671 24.6193 111.229 24.6193C111.591 24.6193 111.921 24.5682 112.22 24.4659C112.518 24.3594 112.776 24.2017 112.993 23.9929C113.21 23.7841 113.377 23.5263 113.492 23.2195L115.301 23.5455C115.156 24.0781 114.896 24.5447 114.521 24.9453C114.15 25.3416 113.683 25.6506 113.121 25.8722C112.563 26.0895 111.926 26.1982 111.21 26.1982ZM121.218 26.1918C120.425 26.1918 119.718 25.9893 119.096 25.5845C118.478 25.1754 117.992 24.5937 117.638 23.8395C117.289 23.081 117.114 22.1712 117.114 21.1101C117.114 20.049 117.291 19.1413 117.645 18.3871C118.003 17.6328 118.493 17.0554 119.115 16.6548C119.737 16.2543 120.442 16.054 121.231 16.054C121.84 16.054 122.33 16.1562 122.701 16.3608C123.076 16.5611 123.366 16.7955 123.57 17.0639C123.779 17.3324 123.941 17.5689 124.056 17.7734H124.171V12.9091H126.082V26H124.216V24.4723H124.056C123.941 24.6811 123.775 24.9197 123.558 25.1882C123.344 25.4567 123.05 25.6911 122.675 25.8913C122.3 26.0916 121.815 26.1918 121.218 26.1918ZM121.64 24.5618C122.19 24.5618 122.654 24.4169 123.033 24.1271C123.417 23.8331 123.707 23.4261 123.903 22.9062C124.103 22.3864 124.203 21.7812 124.203 21.0909C124.203 20.4091 124.105 19.8125 123.909 19.3011C123.713 18.7898 123.425 18.3913 123.046 18.1058C122.667 17.8203 122.198 17.6776 121.64 17.6776C121.065 17.6776 120.585 17.8267 120.202 18.125C119.818 18.4233 119.528 18.8303 119.332 19.3459C119.141 19.8615 119.045 20.4432 119.045 21.0909C119.045 21.7472 119.143 22.3374 119.339 22.8615C119.535 23.3857 119.825 23.8011 120.208 24.108C120.596 24.4105 121.073 24.5618 121.64 24.5618ZM133.082 14.6094V12.9091H143.213V14.6094H139.129V26H137.16V14.6094H133.082ZM148.01 26.1982C147.09 26.1982 146.287 25.9872 145.6 25.5653C144.914 25.1435 144.382 24.5533 144.002 23.7947C143.623 23.0362 143.434 22.1499 143.434 21.1357C143.434 20.1172 143.623 19.2266 144.002 18.4638C144.382 17.701 144.914 17.1087 145.6 16.6868C146.287 16.2649 147.09 16.054 148.01 16.054C148.931 16.054 149.734 16.2649 150.42 16.6868C151.106 17.1087 151.639 17.701 152.018 18.4638C152.397 19.2266 152.587 20.1172 152.587 21.1357C152.587 22.1499 152.397 23.0362 152.018 23.7947C151.639 24.5533 151.106 25.1435 150.42 25.5653C149.734 25.9872 148.931 26.1982 148.01 26.1982ZM148.017 24.5938C148.613 24.5938 149.108 24.4361 149.5 24.1207C149.892 23.8054 150.181 23.3857 150.369 22.8615C150.561 22.3374 150.657 21.7599 150.657 21.1293C150.657 20.5028 150.561 19.9276 150.369 19.4034C150.181 18.875 149.892 18.451 149.5 18.1314C149.108 17.8118 148.613 17.652 148.017 17.652C147.416 17.652 146.917 17.8118 146.521 18.1314C146.129 18.451 145.837 18.875 145.645 19.4034C145.458 19.9276 145.364 20.5028 145.364 21.1293C145.364 21.7599 145.458 22.3374 145.645 22.8615C145.837 23.3857 146.129 23.8054 146.521 24.1207C146.917 24.4361 147.416 24.5938 148.017 24.5938ZM159.637 26V12.9091H164.304C165.322 12.9091 166.166 13.0945 166.835 13.4652C167.504 13.8359 168.005 14.343 168.337 14.9865C168.669 15.6257 168.836 16.3459 168.836 17.147C168.836 17.9524 168.667 18.6768 168.331 19.3203C167.998 19.9595 167.495 20.4666 166.822 20.8416C166.153 21.2124 165.311 21.3977 164.297 21.3977H161.088V19.723H164.118C164.762 19.723 165.284 19.6122 165.684 19.3906C166.085 19.1648 166.379 18.858 166.566 18.4702C166.754 18.0824 166.848 17.6413 166.848 17.147C166.848 16.6527 166.754 16.2138 166.566 15.8303C166.379 15.4467 166.083 15.1463 165.678 14.929C165.277 14.7116 164.749 14.603 164.093 14.603H161.613V26H159.637ZM173.767 26.2173C173.145 26.2173 172.582 26.1023 172.08 25.8722C171.577 25.6378 171.178 25.299 170.884 24.8558C170.594 24.4126 170.45 23.8693 170.45 23.2259C170.45 22.6719 170.556 22.2159 170.769 21.858C170.982 21.5 171.27 21.2166 171.632 21.0078C171.994 20.799 172.399 20.6413 172.847 20.5348C173.294 20.4283 173.75 20.3473 174.214 20.2919C174.803 20.2237 175.28 20.1683 175.646 20.1257C176.013 20.0788 176.279 20.0043 176.445 19.902C176.612 19.7997 176.695 19.6335 176.695 19.4034V19.3587C176.695 18.8004 176.537 18.3679 176.222 18.0611C175.911 17.7543 175.446 17.6009 174.828 17.6009C174.185 17.6009 173.678 17.7436 173.307 18.0291C172.94 18.3104 172.687 18.6236 172.546 18.9688L170.75 18.5597C170.963 17.9631 171.274 17.4815 171.683 17.1151C172.097 16.7443 172.572 16.4759 173.109 16.3097C173.646 16.1392 174.21 16.054 174.803 16.054C175.195 16.054 175.61 16.1009 176.049 16.1946C176.492 16.2841 176.906 16.4503 177.289 16.6932C177.677 16.9361 177.994 17.2834 178.241 17.7351C178.489 18.1825 178.612 18.7642 178.612 19.4801V26H176.746V24.6577H176.669C176.545 24.9048 176.36 25.1477 176.113 25.3864C175.866 25.625 175.548 25.8232 175.161 25.9808C174.773 26.1385 174.308 26.2173 173.767 26.2173ZM174.183 24.6832C174.711 24.6832 175.163 24.5788 175.538 24.37C175.917 24.1612 176.205 23.8885 176.401 23.5518C176.601 23.2109 176.701 22.8466 176.701 22.4588V21.1932C176.633 21.2614 176.501 21.3253 176.305 21.3849C176.113 21.4403 175.893 21.4893 175.646 21.532C175.399 21.5703 175.158 21.6065 174.924 21.6406C174.69 21.6705 174.494 21.696 174.336 21.7173C173.965 21.7642 173.626 21.843 173.32 21.9538C173.017 22.0646 172.774 22.2244 172.591 22.4332C172.412 22.6378 172.322 22.9105 172.322 23.2514C172.322 23.7244 172.497 24.0824 172.847 24.3253C173.196 24.5639 173.641 24.6832 174.183 24.6832ZM182.014 29.6818C181.729 29.6818 181.469 29.6584 181.235 29.6115C181 29.5689 180.825 29.522 180.71 29.4709L181.171 27.9048C181.52 27.9986 181.831 28.0391 182.104 28.0263C182.377 28.0135 182.617 27.9112 182.826 27.7195C183.039 27.5277 183.227 27.2145 183.389 26.7798L183.625 26.1278L180.033 16.1818H182.078L184.565 23.8011H184.667L187.154 16.1818H189.205L185.159 27.3104C184.972 27.8217 184.733 28.2543 184.443 28.608C184.154 28.9659 183.808 29.2344 183.408 29.4134C183.007 29.5923 182.543 29.6818 182.014 29.6818ZM191.002 26V16.1818H192.836V17.7798H192.958C193.162 17.2386 193.497 16.8168 193.961 16.5142C194.426 16.2074 194.982 16.054 195.629 16.054C196.286 16.054 196.835 16.2074 197.279 16.5142C197.726 16.821 198.056 17.2429 198.269 17.7798H198.372C198.606 17.2557 198.979 16.8381 199.49 16.527C200.002 16.2116 200.611 16.054 201.318 16.054C202.209 16.054 202.936 16.3331 203.498 16.8913C204.065 17.4496 204.348 18.2912 204.348 19.4162V26H202.437V19.5952C202.437 18.9304 202.256 18.4489 201.894 18.1506C201.531 17.8523 201.099 17.7031 200.596 17.7031C199.974 17.7031 199.49 17.8949 199.145 18.2784C198.8 18.6577 198.627 19.1456 198.627 19.7422V26H196.722V19.4737C196.722 18.9411 196.556 18.5128 196.224 18.1889C195.892 17.8651 195.459 17.7031 194.926 17.7031C194.564 17.7031 194.23 17.799 193.923 17.9908C193.62 18.1783 193.375 18.4403 193.188 18.777C193.004 19.1136 192.913 19.5036 192.913 19.9467V26H191.002ZM211.141 26.1982C210.174 26.1982 209.341 25.9915 208.642 25.5781C207.947 25.1605 207.411 24.5746 207.031 23.8203C206.656 23.0618 206.469 22.1733 206.469 21.1548C206.469 20.1491 206.656 19.2628 207.031 18.4957C207.411 17.7287 207.939 17.13 208.616 16.6996C209.298 16.2692 210.095 16.054 211.007 16.054C211.561 16.054 212.098 16.1456 212.618 16.3288C213.138 16.5121 213.604 16.7997 214.018 17.1918C214.431 17.5838 214.757 18.093 214.996 18.7195C215.234 19.3416 215.354 20.098 215.354 20.9886V21.6662H207.549V20.2344H213.481C213.481 19.7315 213.379 19.2862 213.174 18.8984C212.969 18.5064 212.682 18.1974 212.311 17.9716C211.945 17.7457 211.514 17.6328 211.02 17.6328C210.483 17.6328 210.014 17.7649 209.614 18.0291C209.217 18.2891 208.911 18.63 208.693 19.0518C208.48 19.4695 208.374 19.9233 208.374 20.4134V21.532C208.374 22.1882 208.489 22.7464 208.719 23.2067C208.953 23.6669 209.279 24.0185 209.697 24.2614C210.114 24.5 210.602 24.6193 211.161 24.6193C211.523 24.6193 211.853 24.5682 212.151 24.4659C212.45 24.3594 212.707 24.2017 212.925 23.9929C213.142 23.7841 213.308 23.5263 213.423 23.2195L215.232 23.5455C215.087 24.0781 214.827 24.5447 214.452 24.9453C214.082 25.3416 213.615 25.6506 213.053 25.8722C212.494 26.0895 211.857 26.1982 211.141 26.1982ZM219.385 20.1705V26H217.474V16.1818H219.309V17.7798H219.43C219.656 17.2599 220.01 16.8423 220.491 16.527C220.977 16.2116 221.589 16.054 222.326 16.054C222.995 16.054 223.581 16.1946 224.084 16.4759C224.586 16.7528 224.976 17.1662 225.253 17.7159C225.53 18.2656 225.669 18.9453 225.669 19.755V26H223.758V19.9851C223.758 19.2734 223.572 18.7173 223.202 18.3168C222.831 17.9119 222.322 17.7095 221.674 17.7095C221.231 17.7095 220.836 17.8054 220.491 17.9972C220.15 18.1889 219.88 18.4702 219.68 18.8409C219.483 19.2074 219.385 19.6506 219.385 20.1705ZM232.815 16.1818V17.7159H227.452V16.1818H232.815ZM228.89 13.8295H230.802V23.1172C230.802 23.4879 230.857 23.767 230.968 23.9545C231.079 24.1378 231.221 24.2635 231.396 24.3317C231.575 24.3956 231.769 24.4276 231.978 24.4276C232.131 24.4276 232.265 24.4169 232.381 24.3956C232.496 24.3743 232.585 24.3572 232.649 24.3445L232.994 25.9233C232.883 25.9659 232.726 26.0085 232.521 26.0511C232.317 26.098 232.061 26.1236 231.754 26.1278C231.251 26.1364 230.782 26.0469 230.348 25.8594C229.913 25.6719 229.562 25.3821 229.293 24.9901C229.025 24.598 228.89 24.1058 228.89 23.5135V13.8295Z" fill="black"/>
</g>
<defs>
<clipPath id="clip0_0_1">
<rect width="1440" height="984" fill="white" transform="translate(-971 -381)"/>
</clipPath>
</defs>
</svg>
